<svg width="124" height="124" viewBox="0 0 124 124" fill="none" xmlns="http://www.w3.org/2000/svg">
<path fill-rule="evenodd" clip-rule="evenodd" d="M13.0902 0.589264H109.727C116.908 0.589264 122.729 6.41059 122.729 13.5916V110.228C122.729 117.409 116.908 123.231 109.727 123.231H13.0902C5.90921 123.231 0.0878906 117.409 0.0878906 110.228V13.5916C0.0878906 6.41059 5.90921 0.589264 13.0902 0.589264ZM21.1669 97.8104V52.8195V52.8116L31.8245 59.7588C33.806 61.0535 34.9981 63.256 34.9981 65.6165V73.3847C34.9981 74.5136 36.2612 75.1768 37.1928 74.5373L50.2661 65.4902C51.6635 64.5192 51.6635 62.4587 50.2661 61.4877L26.5589 45.0749C23.18 42.7461 21.1669 38.9014 21.1669 34.7963V24.5334L57.8607 49.6064C60.0001 51.0669 62.8263 51.0669 64.9657 49.6064L101.652 24.5413V34.8042C101.652 38.9014 99.6306 42.7461 96.2597 45.0828L72.5524 61.4956C71.1551 62.4666 71.1551 64.5271 72.5524 65.4981L85.6257 74.5452C86.5494 75.1847 87.8204 74.5215 87.8204 73.3926V65.6244C87.8204 63.256 89.0125 61.0535 90.994 59.7667L101.652 52.8195V97.8104C101.652 99.7682 99.4411 100.929 97.8307 99.8077L87.8204 92.8763L65.0447 76.7794C62.8658 75.2399 59.9527 75.2399 57.7738 76.7794L34.9981 92.8763L24.9879 99.8077C23.3695 100.929 21.1669 99.7761 21.1669 97.8104Z" fill="black"/>
</svg>
